<?xml version="1.0" standalone="no"?>
<!DOCTYPE svg PUBLIC "-//W3C//DTD SVG 1.1//EN" "http://www.w3.org/Graphics/SVG/1.1/DTD/svg11.dtd" >
<svg xmlns="http://www.w3.org/2000/svg">
<metadata>
This is a custom SVG webfont generated by Font Squirrel.
Copyright   : Copyright c QuickStick Productions 2005 All rights reserved
</metadata>
<defs>
<font id="TallDarkAndHandsomeCondensed" horiz-adv-x="540" >
<font-face units-per-em="2048" ascent="1638" descent="-410" />
<missing-glyph horiz-adv-x="479" />
<glyph unicode=" "  horiz-adv-x="479" />
<glyph unicode="&#x09;" horiz-adv-x="479" />
<glyph unicode="&#xa0;" horiz-adv-x="479" />
<glyph unicode="!" horiz-adv-x="180" d="M29 0h118v119h-118v-119zM29 240h118v1194h-118v-1194z" />
<glyph unicode="&#x22;" horiz-adv-x="425" d="M33 1075h119v359h-119v-359zM272 1075h119v359h-119v-359z" />
<glyph unicode="#" horiz-adv-x="522" d="M23 418h59v-418h119v418h121v-418h118v418h60v119h-60v358h60v121h-60v418h-118v-418h-121v418h-119v-418h-59v-121h59v-358h-59v-119zM201 537v358h121v-358h-121z" />
<glyph unicode="$" horiz-adv-x="518" d="M20 299q0 -74 53.5 -127t127.5 -53v-119h118v119q74 0 127 53q51 51 52 127v59q4 274 -174 394l-5 4v424q6 -4 12.5 -9.5t12.5 -11.5q35 -35 35 -84h119v60q0 76 -52 127q-53 53 -127 53v119h-118v-119q-74 0 -127.5 -53.5t-53.5 -126.5v-60q-2 -272 177 -393l4 -4v-424 q-16 10 -25 20q-37 33 -37 84h-119v-59zM139 1075q0 49 37 84q8 10 25 21v-316q-57 76 -58 152zM319 254v315q55 -72 58 -151l2 -60q0 -49 -35 -84q-9 -8 -25 -20z" />
<glyph unicode="%" horiz-adv-x="522" d="M23 0h118l359 1434h-119zM23 1315q0 -25 18 -43q14 -18 41 -19h59q25 0 43 19q16 16 17 43v59q0 27 -17 41q-18 18 -43 19h-59q-27 0 -41 -19q-18 -16 -18 -41v-59zM322 59q0 -25 16 -41q18 -18 43 -18h59q25 0 43 18q16 14 17 41v60q0 27 -17 43q-16 16 -43 16h-59 q-27 0 -43 -16q-16 -20 -16 -43v-60z" />
<glyph unicode="&#x26;" horiz-adv-x="649" d="M31 178q0 -72 53 -125t125 -53h420v119h-62l62 59l-90 90l-31 -28v389q0 37 -25 61l-10 10q-23 16 -51 17q25 0 51 16q2 4 4 5t6 5q25 25 25 62v448q0 76 -51 127q-53 53 -127 54h-121q-72 0 -125 -53.5t-53 -127.5v-448q0 -37 26 -62q2 -4 4 -5t7 -5q23 -16 51 -16 q-27 0 -53 -17q-2 -4 -4.5 -5t-4.5 -5q-27 -25 -26 -61v-451zM150 240v297q0 47 34 86q39 35 86 34q49 0 84 -34q35 -39 35 -86v-297q0 -47 -35 -86q-35 -35 -84 -35q-47 0 -86 35q-34 39 -34 86zM150 895v299q0 47 34 86q39 35 86 35q49 0 84 -35q35 -39 35 -86v-299 q0 -45 -35 -84q-35 -35 -84 -35q-47 0 -86 35q-34 39 -34 84z" />
<glyph unicode="'" horiz-adv-x="188" d="M33 1075h119v359h-119v-359z" />
<glyph unicode="(" horiz-adv-x="288" d="M31 178q0 -72 53 -125t125 -53h61v119q-47 0 -86 35q-35 39 -34 86v954q0 47 34 86q39 35 86 35v119h-61q-72 0 -125 -53.5t-53 -127.5v-1075z" />
<glyph unicode=")" horiz-adv-x="288" d="M16 0h60q74 0 127 53t53 125v1075q0 74 -53 127.5t-127 53.5h-60v-119q49 0 84 -35t35 -86v-954q0 -51 -34.5 -86t-84.5 -35v-119z" />
<glyph unicode="*" horiz-adv-x="514" d="M18 1194h119l-92 -135l92 -64l121 140l119 -140l94 64l-94 135h119v121h-179v119h-120v-119h-179v-121z" />
<glyph unicode="+" horiz-adv-x="495" d="M8 178h178v-178h121v178h178v121h-178v178h-121v-178h-178v-121z" />
<glyph unicode="," horiz-adv-x="176" d="M31 0h59l60 59v119h-119v-119h59z" />
<glyph unicode="-" horiz-adv-x="544" d="M33 178h477v121h-477v-121z" />
<glyph unicode="." horiz-adv-x="188" d="M33 0h119v119h-119v-119z" />
<glyph unicode="/" horiz-adv-x="485" d="M4 0h119l358 1434h-119z" />
<glyph unicode="0" d="M31 178q0 -72 53 -125t125 -53h121q74 0 127 53q51 51 51 125v1075q0 76 -51 127q-53 53 -127 54h-121q-72 0 -125 -53.5t-53 -127.5v-1075zM150 240v954q0 47 34 86q39 35 86 35q49 0 84 -35q35 -39 35 -86v-954q0 -47 -35 -86q-35 -35 -84 -35q-47 0 -86 35 q-34 39 -34 86z" />
<glyph unicode="1" horiz-adv-x="337" d="M4 1182l178 121v-1303h121v1434h-121l-178 -119v-133z" />
<glyph unicode="2" horiz-adv-x="530" d="M31 0h477v119h-358l315 717q23 51 34 110.5t9 128.5v178q0 76 -51 127q-53 53 -127 54h-121q-72 0 -125 -53.5t-53 -127.5v-178h119v119q0 47 34 86q39 35 86 35q49 0 84 -35q35 -39 35 -86l-2 -119v-59q-4 -47 -20 -88l-336 -797v-131z" />
<glyph unicode="3" horiz-adv-x="538" d="M29 178q0 -72 53 -125t125 -53h121q74 0 127 53q51 51 51 125v451q0 37 -25 61l-10 10q-23 16 -51 17q25 0 51 16q2 4 4 5t6 5q25 25 25 62v448q0 76 -51 127q-53 53 -127 54h-121q-72 0 -125 -53.5t-53 -127.5v-178h118v119q0 47 35 86q39 35 86 35q49 0 84 -35 q35 -39 35 -86v-299q0 -45 -35 -84q-35 -35 -84 -35h-61v-119h61q49 0 84 -34q35 -39 35 -86v-297q0 -47 -35 -86q-35 -35 -84 -35q-47 0 -86 35q-35 39 -35 86v118h-118v-180z" />
<glyph unicode="4" horiz-adv-x="497" d="M8 358h240v-358h119v358h118v119h-118v957h-119l-240 -957v-119zM127 477l121 498v-498h-121z" />
<glyph unicode="5" horiz-adv-x="530" d="M31 178q0 -72 53 -125t125 -53h121q74 0 127 53q51 51 51 125v543q0 68 -51 123q-51 51 -127 51h-180v420h358v119h-477v-658h239q49 0 84 -34.5t35 -84.5v-417q0 -47 -35 -86q-35 -35 -84 -35q-47 0 -86 35q-35 39 -34 86v118h-119v-180z" />
<glyph unicode="6" horiz-adv-x="538" d="M31 178q0 -72 53 -125t125 -53h121q74 0 127 53q51 51 51 125v543q0 68 -51 123q-31 31 -68 43q-25 8 -59 8h-180v299q0 47 34 86q39 35 86 35q49 0 84 -35q35 -39 35 -86v-119h119v178q0 76 -51 127q-53 53 -127 54h-121q-72 0 -125 -53.5t-53 -127.5v-1075zM150 240 v536h120q49 0 84 -34.5t35 -84.5v-417q0 -47 -35 -86q-35 -35 -84 -35q-47 0 -86 35q-34 39 -34 86z" />
<glyph unicode="7" horiz-adv-x="497" d="M16 0h119l359 1434h-478v-119h328z" />
<glyph unicode="8" d="M31 178q0 -72 53 -125t125 -53h121q74 0 127 53q51 51 51 125v451q0 37 -25 61l-10 10q-23 16 -51 17q25 0 51 16q2 4 4 5t6 5q25 25 25 62v448q0 76 -51 127q-53 53 -127 54h-121q-72 0 -125 -53.5t-53 -127.5v-448q0 -37 26 -62q2 -4 4 -5t7 -5q23 -16 51 -16 q-27 0 -53 -17q-2 -4 -4.5 -5t-4.5 -5q-27 -25 -26 -61v-451zM150 240v297q0 47 34 86q39 35 86 34q49 0 84 -34q35 -39 35 -86v-297q0 -47 -35 -86q-35 -35 -84 -35q-47 0 -86 35q-34 39 -34 86zM150 895v299q0 47 34 86q39 35 86 35q49 0 84 -35q35 -39 35 -86v-299 q0 -45 -35 -84q-35 -35 -84 -35q-47 0 -86 35q-34 39 -34 84z" />
<glyph unicode="9" d="M31 178q0 -72 53 -125t125 -53h121q74 0 127 53q51 51 51 125v1075q0 76 -51 127q-53 53 -127 54h-121q-72 0 -125 -53.5t-53 -127.5v-540q0 -70 53 -123q27 -31 66 -43q31 -10 59 -10h180v-297q0 -47 -35 -86q-35 -35 -84 -35q-47 0 -86 35q-35 39 -34 86v118h-119v-180 zM150 776v418q0 47 34 86q39 35 86 35q49 0 84 -35q35 -39 35 -86v-537h-119q-47 0 -86 35q-34 35 -34 84z" />
<glyph unicode=":" horiz-adv-x="169" d="M33 0h119v119h-119v-119zM33 240h119v118h-119v-118z" />
<glyph unicode=";" horiz-adv-x="178" d="M29 0h59l59 59v119h-118v-119h59zM29 299h118v119h-118v-119z" />
<glyph unicode="&#x3c;" horiz-adv-x="499" d="M0 717l477 -418v147l-299 271l299 270v148z" />
<glyph unicode="=" horiz-adv-x="526" d="M33 0h477v119h-477v-119zM33 244h477v121h-477v-121z" />
<glyph unicode="&#x3e;" horiz-adv-x="509" d="M33 299l477 418l-477 418v-148l299 -270l-299 -271v-147z" />
<glyph unicode="?" horiz-adv-x="505" d="M20 0h119v119h-119v-119zM20 240h119v178q0 49 35 84t86 35h59q74 0 127 53q51 55 52 123v540q0 76 -52 127q-53 53 -127 54h-120q-72 0 -125.5 -53.5t-53.5 -127.5v-178h119v119q0 47 35 86q39 35 86 35q49 0 84 -35q35 -39 35 -86v-418q0 -49 -35 -84t-84 -35h-61 q-72 0 -125.5 -53t-53.5 -127v-237z" />
<glyph unicode="@" d="M31 178q0 -72 53 -125t125 -53h299v119h-238q-47 0 -86 35q-35 39 -34 86v954q0 47 34 86q39 35 86 35q49 0 84 -35q35 -39 35 -86v-866q0 -8 -8 -21q-8 -8 -21 -8h-2q-12 0 -20 8t-8 21v866q0 25 -19 43q-14 16 -41 16t-43 -16q-18 -18 -18 -43v-954q0 -25 18.5 -43.5 t42.5 -18.5h179q25 0 43 19q16 20 16 41v1015q0 76 -51 127q-53 53 -127 54h-121q-72 0 -125 -53.5t-53 -127.5v-1075z" />
<glyph unicode="A" horiz-adv-x="507" d="M14 0h131l39 358h140l36 -358h132l-179 1434h-120zM197 477l57 545l57 -545h-114z" />
<glyph unicode="B" horiz-adv-x="542" d="M33 0h299q74 0 127 53q51 51 51 125v451q0 37 -25 61l-10 10q-23 16 -51 17q25 0 51 16q2 4 4 5t6 5q25 25 25 62v448q0 76 -51 127q-53 53 -127 54h-299v-1434zM152 119v538h120q49 0 84 -34q35 -39 35 -86v-297q0 -47 -35 -86q-35 -35 -84 -35h-120zM152 776v539h120 q49 0 84 -35q35 -39 35 -86v-299q0 -45 -35 -84q-35 -35 -84 -35h-120z" />
<glyph unicode="C" horiz-adv-x="538" d="M31 178q0 -72 53 -125t125 -53h121q74 0 127 53q51 51 51 125v180h-119v-118q0 -47 -35 -86q-35 -35 -84 -35q-47 0 -86 35q-35 39 -34 86v954q0 47 34 86q39 35 86 35q49 0 84 -35q35 -39 35 -86v-119h119v178q0 76 -51 127q-53 53 -127 54h-121q-72 0 -125 -53.5 t-53 -127.5v-1075z" />
<glyph unicode="D" horiz-adv-x="542" d="M33 0h299q74 0 127 53q51 51 51 125v1075q0 76 -51 127q-53 53 -127 54h-299v-1434zM152 119v1196h120q49 0 84 -35q35 -39 35 -86v-954q0 -47 -35 -86q-35 -35 -84 -35h-120z" />
<glyph unicode="E" horiz-adv-x="518" d="M33 0h477v119h-358v538h358v119h-358v539h358v119h-477v-1434z" />
<glyph unicode="F" horiz-adv-x="509" d="M33 0h119v657h358v119h-358v539h358v119h-477v-1434z" />
<glyph unicode="G" horiz-adv-x="538" d="M31 178q0 -72 53 -125t125 -53h121q74 0 127 53q51 51 51 125v539h-238v-119h119v-358q0 -47 -35 -86q-35 -35 -84 -35q-47 0 -86 35q-35 39 -34 86v954q0 47 34 86q39 35 86 35q49 0 84 -35q35 -39 35 -86v-119h119v178q0 76 -51 127q-53 53 -127 54h-121 q-72 0 -125 -53.5t-53 -127.5v-1075z" />
<glyph unicode="H" horiz-adv-x="544" d="M33 0h119v657h239v-657h119v1434h-119v-658h-239v658h-119v-1434z" />
<glyph unicode="I" horiz-adv-x="188" d="M33 0h119v1434h-119v-1434z" />
<glyph unicode="J" horiz-adv-x="514" d="M4 178q0 -72 53.5 -125t124.5 -53h121q74 0 127 53q51 51 51 125v1256h-119v-1194q0 -47 -34 -86q-35 -35 -84 -35q-47 0 -86 35q-35 39 -35 86v118h-119v-180z" />
<glyph unicode="K" horiz-adv-x="536" d="M33 0h119v680l227 -680h131l-238 717l238 717h-131l-227 -682v682h-119v-1434z" />
<glyph unicode="L" horiz-adv-x="509" d="M33 0h477v119h-358v1315h-119v-1434z" />
<glyph unicode="M" horiz-adv-x="663" d="M33 0h119v956l120 -956h119l119 956v-956h121v1434h-193l-106 -1016l-109 1016h-190v-1434z" />
<glyph unicode="N" horiz-adv-x="544" d="M33 0h119v1067l174 -1067h184v1434h-119v-1065l-174 1065h-184v-1434z" />
<glyph unicode="O" d="M31 178q0 -72 53 -125t125 -53h121q74 0 127 53q51 51 51 125v1075q0 76 -51 127q-53 53 -127 54h-121q-72 0 -125 -53.5t-53 -127.5v-1075zM150 240v954q0 47 34 86q39 35 86 35q49 0 84 -35q35 -39 35 -86v-954q0 -47 -35 -86q-35 -35 -84 -35q-47 0 -86 35 q-34 39 -34 86z" />
<glyph unicode="P" horiz-adv-x="518" d="M33 0h119v657h180q76 0 127 52q51 53 51 127v417q0 76 -51 127q-53 53 -127 54h-299v-1434zM152 776v539h120q49 0 84 -35q35 -39 35 -86v-299q0 -45 -35 -84q-35 -35 -84 -35h-120z" />
<glyph unicode="Q" horiz-adv-x="647" d="M33 178q0 -72 53 -125t125 -53h420v119h-129q8 25 8 59v1075q0 76 -51 127q-53 53 -127 54h-121q-72 0 -125 -53.5t-53 -127.5v-1075zM152 240v954q0 47 34 86q39 35 86 35q49 0 84 -35q35 -39 35 -86v-954q0 -47 -35 -86q-35 -35 -84 -35q-47 0 -86 35q-34 39 -34 86z " />
<glyph unicode="R" horiz-adv-x="542" d="M33 0h119v657h120q49 0 84 -34q35 -39 35 -86v-537h119v629q0 37 -25 61l-10 10q-23 16 -51 17q25 0 51 16q2 4 4 5t6 5q25 25 25 62v448q0 76 -51 127q-53 53 -127 54h-299v-1434zM152 776v539h120q49 0 84 -35q35 -39 35 -86v-299q0 -45 -35 -84q-35 -35 -84 -35h-120z " />
<glyph unicode="S" horiz-adv-x="538" d="M31 178q0 -72 53 -125t127 -53h119q74 0 127 53q51 51 51 125v180v13q0 265 -174 381q-176 123 -180 264v59l-4 119q0 49 36 86q35 35 84 35t84 -35q35 -39 35 -86v-119h119v178q0 76 -51 127q-53 53 -127 54h-119q-74 0 -127 -53.5t-53 -127.5v-178q-2 -272 176 -393 q178 -125 180 -264l2 -60v-118q0 -47 -35 -86q-35 -35 -84 -35t-84 35q-37 37 -36 86v118h-119v-180z" />
<glyph unicode="T" horiz-adv-x="495" d="M8 1315h178v-1315h121v1315h178v119h-477v-119z" />
<glyph unicode="U" horiz-adv-x="542" d="M33 178q0 -72 53 -125t125 -53h121q74 0 127 53q51 51 51 125v1256h-119v-1194q0 -47 -35 -86q-35 -35 -84 -35q-47 0 -86 35q-35 39 -34 86v1194h-119v-1256z" />
<glyph unicode="V" horiz-adv-x="507" d="M14 1434l179 -1434h120l179 1434h-132l-106 -1016l-109 1016h-131z" />
<glyph unicode="W" horiz-adv-x="868" d="M23 1434l178 -1434h121l112 907l115 -907h119l178 1434h-131l-107 -1016l-108 1016h-131l-107 -1016l-108 1016h-131z" />
<glyph unicode="X" horiz-adv-x="530" d="M27 0h125l114 461l113 -461h125l-176 717l176 717h-125l-113 -461l-114 461h-125l176 -717z" />
<glyph unicode="Y" horiz-adv-x="501" d="M12 1434l178 -717v-717h121v717l178 717h-124l-113 -461l-115 461h-125z" />
<glyph unicode="Z" horiz-adv-x="512" d="M16 0h478v119h-322l322 1315h-478v-119h324z" />
<glyph unicode="[" horiz-adv-x="286" d="M33 0h239v119h-120v1196h120v119h-239v-1434z" />
<glyph unicode="\" horiz-adv-x="485" d="M4 1434l358 -1434h119l-358 1434h-119z" />
<glyph unicode="]" horiz-adv-x="286" d="M12 0h240v1434h-240v-119h119v-1196h-119v-119z" />
<glyph unicode="^" horiz-adv-x="501" d="M12 895h119l121 299l119 -299h118l-237 539z" />
<glyph unicode="_" horiz-adv-x="544" d="M33 0h477v119h-477v-119z" />
<glyph unicode="`" horiz-adv-x="264" d="M10 1434l121 -240h119l-119 240h-121z" />
<glyph unicode="a" horiz-adv-x="509" d="M16 0h131l39 358h140l36 -358h132l-179 1434h-120zM199 477l57 545l57 -545h-114z" />
<glyph unicode="b" horiz-adv-x="542" d="M33 0h299q74 0 127 53q51 51 51 125v451q0 37 -25 61l-10 10q-23 16 -51 17q25 0 51 16q2 4 4 5t6 5q25 25 25 62v448q0 76 -51 127q-53 53 -127 54h-299v-1434zM152 119v538h120q49 0 84 -34q35 -39 35 -86v-297q0 -47 -35 -86q-35 -35 -84 -35h-120zM152 776v539h120 q49 0 84 -35q35 -39 35 -86v-299q0 -45 -35 -84q-35 -35 -84 -35h-120z" />
<glyph unicode="c" horiz-adv-x="538" d="M31 178q0 -72 53 -125t125 -53h121q74 0 127 53q51 51 51 125v180h-119v-118q0 -47 -35 -86q-35 -35 -84 -35q-47 0 -86 35q-35 39 -34 86v954q0 47 34 86q39 35 86 35q49 0 84 -35q35 -39 35 -86v-119h119v178q0 76 -51 127q-53 53 -127 54h-121q-72 0 -125 -53.5 t-53 -127.5v-1075z" />
<glyph unicode="d" horiz-adv-x="542" d="M33 0h299q74 0 127 53q51 51 51 125v1075q0 76 -51 127q-53 53 -127 54h-299v-1434zM152 119v1196h120q49 0 84 -35q35 -39 35 -86v-954q0 -47 -35 -86q-35 -35 -84 -35h-120z" />
<glyph unicode="e" horiz-adv-x="518" d="M33 0h477v119h-358v538h358v119h-358v539h358v119h-477v-1434z" />
<glyph unicode="f" horiz-adv-x="509" d="M33 0h119v657h358v119h-358v539h358v119h-477v-1434z" />
<glyph unicode="g" horiz-adv-x="538" d="M31 178q0 -72 53 -125t125 -53h121q74 0 127 53q51 51 51 125v539h-238v-119h119v-358q0 -47 -35 -86q-35 -35 -84 -35q-47 0 -86 35q-35 39 -34 86v954q0 47 34 86q39 35 86 35q49 0 84 -35q35 -39 35 -86v-119h119v178q0 76 -51 127q-53 53 -127 54h-121 q-72 0 -125 -53.5t-53 -127.5v-1075z" />
<glyph unicode="h" horiz-adv-x="544" d="M33 0h119v657h239v-657h119v1434h-119v-658h-239v658h-119v-1434z" />
<glyph unicode="i" horiz-adv-x="188" d="M33 0h119v1434h-119v-1434z" />
<glyph unicode="j" horiz-adv-x="514" d="M4 178q0 -72 53.5 -125t124.5 -53h121q74 0 127 53q51 51 51 125v1256h-119v-1194q0 -47 -34 -86q-35 -35 -84 -35q-47 0 -86 35q-35 39 -35 86v118h-119v-180z" />
<glyph unicode="k" horiz-adv-x="536" d="M33 0h119v680l227 -680h131l-238 717l238 717h-131l-227 -682v682h-119v-1434z" />
<glyph unicode="l" horiz-adv-x="509" d="M33 0h477v119h-358v1315h-119v-1434z" />
<glyph unicode="m" horiz-adv-x="663" d="M33 0h119v956l120 -956h119l119 956v-956h121v1434h-193l-106 -1016l-109 1016h-190v-1434z" />
<glyph unicode="n" horiz-adv-x="544" d="M33 0h119v1067l174 -1067h184v1434h-119v-1065l-174 1065h-184v-1434z" />
<glyph unicode="o" d="M31 178q0 -72 53 -125t125 -53h121q74 0 127 53q51 51 51 125v1075q0 76 -51 127q-53 53 -127 54h-121q-72 0 -125 -53.5t-53 -127.5v-1075zM150 240v954q0 47 34 86q39 35 86 35q49 0 84 -35q35 -39 35 -86v-954q0 -47 -35 -86q-35 -35 -84 -35q-47 0 -86 35 q-34 39 -34 86z" />
<glyph unicode="p" horiz-adv-x="518" d="M33 0h119v657h180q76 0 127 52q51 53 51 127v417q0 76 -51 127q-53 53 -127 54h-299v-1434zM152 776v539h120q49 0 84 -35q35 -39 35 -86v-299q0 -45 -35 -84q-35 -35 -84 -35h-120z" />
<glyph unicode="q" horiz-adv-x="647" d="M33 178q0 -72 53 -125t125 -53h420v119h-129q8 25 8 59v1075q0 76 -51 127q-53 53 -127 54h-121q-72 0 -125 -53.5t-53 -127.5v-1075zM152 240v954q0 47 34 86q39 35 86 35q49 0 84 -35q35 -39 35 -86v-954q0 -47 -35 -86q-35 -35 -84 -35q-47 0 -86 35q-34 39 -34 86z " />
<glyph unicode="r" horiz-adv-x="542" d="M33 0h119v657h120q49 0 84 -34q35 -39 35 -86v-537h119v629q0 37 -25 61l-10 10q-23 16 -51 17q25 0 51 16q2 4 4 5t6 5q25 25 25 62v448q0 76 -51 127q-53 53 -127 54h-299v-1434zM152 776v539h120q49 0 84 -35q35 -39 35 -86v-299q0 -45 -35 -84q-35 -35 -84 -35h-120z " />
<glyph unicode="s" horiz-adv-x="538" d="M31 178q0 -72 53 -125t127 -53h119q74 0 127 53q51 51 51 125v180v13q0 265 -174 381q-176 123 -180 264v59l-4 119q0 49 36 86q35 35 84 35t84 -35q35 -39 35 -86v-119h119v178q0 76 -51 127q-53 53 -127 54h-119q-74 0 -127 -53.5t-53 -127.5v-178q-2 -272 176 -393 q178 -125 180 -264l2 -60v-118q0 -47 -35 -86q-35 -35 -84 -35t-84 35q-37 37 -36 86v118h-119v-180z" />
<glyph unicode="t" horiz-adv-x="495" d="M8 1315h178v-1315h121v1315h178v119h-477v-119z" />
<glyph unicode="u" horiz-adv-x="542" d="M33 178q0 -72 53 -125t125 -53h121q74 0 127 53q51 51 51 125v1256h-119v-1194q0 -47 -35 -86q-35 -35 -84 -35q-47 0 -86 35q-35 39 -34 86v1194h-119v-1256z" />
<glyph unicode="v" horiz-adv-x="507" d="M14 1434l179 -1434h120l179 1434h-132l-106 -1016l-109 1016h-131z" />
<glyph unicode="w" horiz-adv-x="868" d="M23 1434l178 -1434h121l112 907l115 -907h119l178 1434h-131l-107 -1016l-108 1016h-131l-107 -1016l-108 1016h-131z" />
<glyph unicode="x" horiz-adv-x="530" d="M27 0h125l114 461l113 -461h125l-176 717l176 717h-125l-113 -461l-114 461h-125l176 -717z" />
<glyph unicode="y" horiz-adv-x="501" d="M12 1434l178 -717v-717h121v717l178 717h-124l-113 -461l-115 461h-125z" />
<glyph unicode="z" horiz-adv-x="512" d="M16 0h478v119h-322l322 1315h-478v-119h324z" />
<glyph unicode="{" horiz-adv-x="387" d="M6 662q49 0 84 -35t35 -82v-367q0 -72 53 -125t127 -53h60v119q-49 0 -84 34.5t-35 86.5v395q-4 39 -27 61q-4 2 -5 4t-5 5q-23 16 -51 16q29 0 51 16l10 11q23 23 27 59v387q0 51 34.5 86t84.5 35v119h-60q-74 0 -127 -53.5t-53 -127.5v-356q0 -45 -35 -80 q-35 -37 -84 -37v-118z" />
<glyph unicode="|" horiz-adv-x="268" d="M33 -2h200v1434h-200v-1434z" />
<glyph unicode="}" horiz-adv-x="387" d="M23 0h59q74 0 127 53t53 125v367q0 47 35 82t84 35v118q-51 0 -84 37q-35 35 -35 80v356q0 74 -53 127.5t-127 53.5h-59v-119q49 0 83.5 -35t34.5 -86v-387q4 -37 27 -59l10 -11q23 -16 51 -16q-29 0 -51 -16q-4 -2 -5 -4.5t-5 -4.5q-23 -23 -27 -61v-395 q0 -51 -34.5 -86t-83.5 -35v-119z" />
<glyph unicode="~" horiz-adv-x="581" d="M23 1135l178 180l180 -180l178 180v119l-178 -181l-180 181l-178 -181v-118z" />
<glyph unicode="&#xa9;" horiz-adv-x="401" d="M33 442q0 -25 18 -45q23 -18 45 -18h209q20 0 43 18q18 20 19 45v545q0 25 -18.5 43.5t-43.5 18.5h-209q-27 0 -45 -18.5t-18 -43.5v-545zM74 463v502q0 18 12 30t31 13h166q18 0 30.5 -12.5t12.5 -30.5v-502q0 -16 -12.5 -28.5t-30.5 -12.5h-166q-18 0 -30.5 12.5 t-12.5 28.5zM117 528q0 -25 18 -45q23 -18 45 -18h41q23 0 45 18q16 18 17 45v64h-41v-43q0 -16 -12.5 -28.5t-28.5 -12.5q-18 0 -30.5 12t-12.5 29v336q0 16 12 28.5t31 12.5q16 0 28.5 -12.5t12.5 -28.5v-43h41v63q0 29 -16.5 45.5t-45.5 16.5h-41q-29 0 -45 -17 q-18 -18 -18 -45v-377z" />
<glyph unicode="&#xaa;" horiz-adv-x="509" d="M16 0h131l39 358h140l36 -358h132l-179 1434h-120zM199 477l57 545l57 -545h-114z" />
<glyph unicode="&#xad;" horiz-adv-x="544" d="M33 178h477v121h-477v-121z" />
<glyph unicode="&#xae;" horiz-adv-x="401" d="M33 442q0 -25 18 -45q23 -18 45 -18h209q20 0 43 18q18 20 19 45v545q0 25 -18.5 43.5t-43.5 18.5h-209q-27 0 -45 -18.5t-18 -43.5v-545zM74 463v502q0 18 12 30.5t31 12.5h166q18 0 30.5 -12.5t12.5 -30.5v-502q0 -16 -12.5 -28.5t-30.5 -12.5h-166q-18 0 -30.5 12.5 t-12.5 28.5zM117 465h41v231h43q16 0 28.5 -12t12.5 -31v-188h41v221q0 14 -9 23q-2 2 -4 2q-6 6 -16 6q10 0 16 6h2q0 2 2 2q8 8 9 23v157q0 29 -16.5 45.5t-45.5 16.5h-104v-502zM158 737v189h43q16 0 28.5 -12.5t12.5 -28.5v-105q0 -18 -12.5 -30.5t-28.5 -12.5h-43z" />
<glyph unicode="&#xb0;" horiz-adv-x="532" d="M27 1118q0 -72 53 -125t125 -53h121q74 0 127 53q51 51 51 125v137q0 76 -51 127q-53 53 -127 54h-121q-72 0 -125 -53.5t-53 -127.5v-137zM145 1180v16q0 47 35 86q39 35 86 35q49 0 84 -35q35 -39 35 -86v-16q0 -47 -35 -86q-35 -35 -84 -35q-47 0 -86 35 q-35 39 -35 86z" />
<glyph unicode="&#xb1;" horiz-adv-x="516" d="M18 0h478v119h-478v-119zM18 383h179v-178h120v178h179v121h-179v178h-120v-178h-179v-121z" />
<glyph unicode="&#xb2;" horiz-adv-x="260" d="M31 817h205v51h-154l135 310q10 23 15.5 47t3.5 55v76q0 35 -23 55q-23 23 -53 23h-54q-31 0 -53 -22.5t-22 -55.5v-76h51v51q0 18 14 37q18 14 37 14q18 0 37 -14q14 -14 14 -37v-51v-27q-2 -10 -4 -18t-6 -18l-143 -343v-57z" />
<glyph unicode="&#xb3;" horiz-adv-x="270" d="M29 891q0 -33 22 -55q27 -23 55 -23h52q33 0 55 23q23 20 23 55v194q0 18 -11 27l-4 4q-8 8 -22 8q10 0 22 6q0 2 4 7q10 8 11 26v195q0 33 -23 55.5t-55 22.5h-52q-29 0 -55 -23q-23 -27 -22 -55v-78h51v51q0 20 16.5 36.5t36.5 16.5t37 -16q14 -18 14 -37v-129 q0 -18 -14 -37q-16 -16 -37 -16h-27v-51h27q23 0 37 -15q14 -18 14 -36v-129q0 -18 -14 -39q-18 -14 -37 -15q-18 0 -37 15q-16 20 -16 39v51h-51v-78z" />
<glyph unicode="&#xb4;" horiz-adv-x="264" d="M12 1194h121l119 240h-119z" />
<glyph unicode="&#xb9;" horiz-adv-x="167" d="M4 1323l76 53v-557h51v613h-51l-76 -52v-57z" />
<glyph unicode="&#xba;" d="M31 178q0 -72 53 -125t125 -53h121q74 0 127 53q51 51 51 125v1075q0 76 -51 127q-53 53 -127 54h-121q-72 0 -125 -53.5t-53 -127.5v-1075zM150 240v954q0 47 34 86q39 35 86 35q49 0 84 -35q35 -39 35 -86v-954q0 -47 -35 -86q-35 -35 -84 -35q-47 0 -86 35 q-34 39 -34 86z" />
<glyph unicode="&#xbf;" horiz-adv-x="505" d="M8 180q0 -76 51 -127q53 -53 127 -53h121q72 0 125 53t53 127v178h-118v-118q0 -47 -35 -86q-39 -35 -86 -35q-49 0 -84 35q-35 39 -35 86v417q0 49 35 84t84 35h61q72 0 125 53.5t53 126.5v238h-118v-178q0 -49 -35 -84t-86 -35h-60q-74 0 -127 -53q-51 -55 -51 -123 v-541zM367 1315h118v119h-118v-119z" />
<glyph unicode="&#xc0;" horiz-adv-x="507" d="M71 1796l121 -240h119l-119 240h-121zM14 0h131l39 358h140l36 -358h132l-179 1434h-120zM197 477l57 545l57 -545h-114z" />
<glyph unicode="&#xc1;" horiz-adv-x="507" d="M192 1556h121l119 240h-119zM14 0h131l39 358h140l36 -358h132l-179 1434h-120zM197 477l57 545l57 -545h-114z" />
<glyph unicode="&#xc2;" horiz-adv-x="507" d="M14 1557h119l121 299l119 -299h118l-237 539zM14 0h131l39 358h140l36 -358h132l-179 1434h-120zM197 477l57 545l57 -545h-114z" />
<glyph unicode="&#xc3;" horiz-adv-x="507" d="M-14 1557l178 180l180 -180l178 180v119l-178 -181l-180 181l-178 -181v-118zM14 0h131l39 358h140l36 -358h132l-179 1434h-120zM197 477l57 545l57 -545h-114z" />
<glyph unicode="&#xc5;" horiz-adv-x="507" d="M15 1595q0 -72 53 -125t125 -53h121q74 0 127 53q51 51 51 125v137q0 76 -51 127q-53 53 -127 54h-121q-72 0 -125 -53.5t-53 -127.5v-137zM133 1657v16q0 47 35 86q39 35 86 35q49 0 84 -35q35 -39 35 -86v-16q0 -47 -35 -86q-35 -35 -84 -35q-47 0 -86 35 q-35 39 -35 86zM14 0h131l39 358h140l36 -358h132l-179 1434h-120zM197 477l57 545l57 -545h-114z" />
<glyph unicode="&#xc8;" horiz-adv-x="518" d="M92 1796l121 -240h119l-119 240h-121zM33 0h477v119h-358v538h358v119h-358v539h358v119h-477v-1434z" />
<glyph unicode="&#xc9;" horiz-adv-x="518" d="M211 1556h121l119 240h-119zM33 0h477v119h-358v538h358v119h-358v539h358v119h-477v-1434z" />
<glyph unicode="&#xca;" horiz-adv-x="518" d="M32 1557h119l121 299l119 -299h118l-237 539zM33 0h477v119h-358v538h358v119h-358v539h358v119h-477v-1434z" />
<glyph unicode="&#xcc;" horiz-adv-x="188" d="M-88 1796l121 -240h119l-119 240h-121zM33 0h119v1434h-119v-1434z" />
<glyph unicode="&#xcd;" horiz-adv-x="188" d="M32 1556h121l119 240h-119zM33 0h119v1434h-119v-1434z" />
<glyph unicode="&#xce;" horiz-adv-x="188" d="M-148 1557h119l121 299l119 -299h118l-237 539zM33 0h119v1434h-119v-1434z" />
<glyph unicode="&#xd1;" horiz-adv-x="544" d="M3 1557l178 180l180 -180l178 180v119l-178 -181l-180 181l-178 -181v-118zM33 0h119v1067l174 -1067h184v1434h-119v-1065l-174 1065h-184v-1434z" />
<glyph unicode="&#xd2;" d="M88 1796l121 -240h119l-119 240h-121zM31 178q0 -72 53 -125t125 -53h121q74 0 127 53q51 51 51 125v1075q0 76 -51 127q-53 53 -127 54h-121q-72 0 -125 -53.5t-53 -127.5v-1075zM150 240v954q0 47 34 86q39 35 86 35q49 0 84 -35q35 -39 35 -86v-954q0 -47 -35 -86 q-35 -35 -84 -35q-47 0 -86 35q-34 39 -34 86z" />
<glyph unicode="&#xd3;" d="M209 1556h121l119 240h-119zM31 178q0 -72 53 -125t125 -53h121q74 0 127 53q51 51 51 125v1075q0 76 -51 127q-53 53 -127 54h-121q-72 0 -125 -53.5t-53 -127.5v-1075zM150 240v954q0 47 34 86q39 35 86 35q49 0 84 -35q35 -39 35 -86v-954q0 -47 -35 -86 q-35 -35 -84 -35q-47 0 -86 35q-34 39 -34 86z" />
<glyph unicode="&#xd4;" d="M30 1557h119l121 299l119 -299h118l-237 539zM31 178q0 -72 53 -125t125 -53h121q74 0 127 53q51 51 51 125v1075q0 76 -51 127q-53 53 -127 54h-121q-72 0 -125 -53.5t-53 -127.5v-1075zM150 240v954q0 47 34 86q39 35 86 35q49 0 84 -35q35 -39 35 -86v-954 q0 -47 -35 -86q-35 -35 -84 -35q-47 0 -86 35q-34 39 -34 86z" />
<glyph unicode="&#xd5;" d="M3 1557l178 180l180 -180l178 180v119l-178 -181l-180 181l-178 -181v-118zM31 178q0 -72 53 -125t125 -53h121q74 0 127 53q51 51 51 125v1075q0 76 -51 127q-53 53 -127 54h-121q-72 0 -125 -53.5t-53 -127.5v-1075zM150 240v954q0 47 34 86q39 35 86 35q49 0 84 -35 q35 -39 35 -86v-954q0 -47 -35 -86q-35 -35 -84 -35q-47 0 -86 35q-34 39 -34 86z" />
<glyph unicode="&#xd9;" horiz-adv-x="542" d="M92 1796l121 -240h119l-119 240h-121zM33 178q0 -72 53 -125t125 -53h121q74 0 127 53q51 51 51 125v1256h-119v-1194q0 -47 -35 -86q-35 -35 -84 -35q-47 0 -86 35q-35 39 -34 86v1194h-119v-1256z" />
<glyph unicode="&#xda;" horiz-adv-x="542" d="M211 1556h121l119 240h-119zM33 178q0 -72 53 -125t125 -53h121q74 0 127 53q51 51 51 125v1256h-119v-1194q0 -47 -35 -86q-35 -35 -84 -35q-47 0 -86 35q-35 39 -34 86v1194h-119v-1256z" />
<glyph unicode="&#xdb;" horiz-adv-x="542" d="M32 1557h119l121 299l119 -299h118l-237 539zM33 178q0 -72 53 -125t125 -53h121q74 0 127 53q51 51 51 125v1256h-119v-1194q0 -47 -35 -86q-35 -35 -84 -35q-47 0 -86 35q-35 39 -34 86v1194h-119v-1256z" />
<glyph unicode="&#xdd;" horiz-adv-x="501" d="M190 1556h121l119 240h-119zM12 1434l178 -717v-717h121v717l178 717h-124l-113 -461l-115 461h-125z" />
<glyph unicode="&#xe0;" horiz-adv-x="509" d="M76 1796l121 -240h119l-119 240h-121zM16 0h131l39 358h140l36 -358h132l-179 1434h-120zM199 477l57 545l57 -545h-114z" />
<glyph unicode="&#xe1;" horiz-adv-x="509" d="M194 1556h121l119 240h-119zM16 0h131l39 358h140l36 -358h132l-179 1434h-120zM199 477l57 545l57 -545h-114z" />
<glyph unicode="&#xe2;" horiz-adv-x="509" d="M16 1557h119l121 299l119 -299h118l-237 539zM16 0h131l39 358h140l36 -358h132l-179 1434h-120zM199 477l57 545l57 -545h-114z" />
<glyph unicode="&#xe3;" horiz-adv-x="509" d="M-14 1557l178 180l180 -180l178 180v119l-178 -181l-180 181l-178 -181v-118zM16 0h131l39 358h140l36 -358h132l-179 1434h-120zM199 477l57 545l57 -545h-114z" />
<glyph unicode="&#xe5;" horiz-adv-x="509" d="M17 1734q0 -72 53 -125t125 -53h121q74 0 127 53q51 51 51 125v137q0 76 -51 127q-53 53 -127 54h-121q-72 0 -125 -53.5t-53 -127.5v-137zM135 1796v16q0 47 35 86q39 35 86 35q49 0 84 -35q35 -39 35 -86v-16q0 -47 -35 -86q-35 -35 -84 -35q-47 0 -86 35 q-35 39 -35 86zM16 0h131l39 358h140l36 -358h132l-179 1434h-120zM199 477l57 545l57 -545h-114z" />
<glyph unicode="&#xe8;" horiz-adv-x="518" d="M92 1796l121 -240h119l-119 240h-121zM33 0h477v119h-358v538h358v119h-358v539h358v119h-477v-1434z" />
<glyph unicode="&#xe9;" horiz-adv-x="518" d="M211 1556h121l119 240h-119zM33 0h477v119h-358v538h358v119h-358v539h358v119h-477v-1434z" />
<glyph unicode="&#xea;" horiz-adv-x="518" d="M32 1557h119l121 299l119 -299h118l-237 539zM33 0h477v119h-358v538h358v119h-358v539h358v119h-477v-1434z" />
<glyph unicode="&#xec;" horiz-adv-x="188" d="M-88 1796l121 -240h119l-119 240h-121zM33 0h119v1434h-119v-1434z" />
<glyph unicode="&#xed;" horiz-adv-x="188" d="M32 1556h121l119 240h-119zM33 0h119v1434h-119v-1434z" />
<glyph unicode="&#xee;" horiz-adv-x="188" d="M-148 1557h119l121 299l119 -299h118l-237 539zM33 0h119v1434h-119v-1434z" />
<glyph unicode="&#xf1;" horiz-adv-x="544" d="M3 1557l178 180l180 -180l178 180v119l-178 -181l-180 181l-178 -181v-118zM33 0h119v1067l174 -1067h184v1434h-119v-1065l-174 1065h-184v-1434z" />
<glyph unicode="&#xf2;" d="M88 1796l121 -240h119l-119 240h-121zM31 178q0 -72 53 -125t125 -53h121q74 0 127 53q51 51 51 125v1075q0 76 -51 127q-53 53 -127 54h-121q-72 0 -125 -53.5t-53 -127.5v-1075zM150 240v954q0 47 34 86q39 35 86 35q49 0 84 -35q35 -39 35 -86v-954q0 -47 -35 -86 q-35 -35 -84 -35q-47 0 -86 35q-34 39 -34 86z" />
<glyph unicode="&#xf3;" d="M209 1556h121l119 240h-119zM31 178q0 -72 53 -125t125 -53h121q74 0 127 53q51 51 51 125v1075q0 76 -51 127q-53 53 -127 54h-121q-72 0 -125 -53.5t-53 -127.5v-1075zM150 240v954q0 47 34 86q39 35 86 35q49 0 84 -35q35 -39 35 -86v-954q0 -47 -35 -86 q-35 -35 -84 -35q-47 0 -86 35q-34 39 -34 86z" />
<glyph unicode="&#xf4;" d="M30 1557h119l121 299l119 -299h118l-237 539zM31 178q0 -72 53 -125t125 -53h121q74 0 127 53q51 51 51 125v1075q0 76 -51 127q-53 53 -127 54h-121q-72 0 -125 -53.5t-53 -127.5v-1075zM150 240v954q0 47 34 86q39 35 86 35q49 0 84 -35q35 -39 35 -86v-954 q0 -47 -35 -86q-35 -35 -84 -35q-47 0 -86 35q-34 39 -34 86z" />
<glyph unicode="&#xf5;" d="M3 1557l178 180l180 -180l178 180v119l-178 -181l-180 181l-178 -181v-118zM31 178q0 -72 53 -125t125 -53h121q74 0 127 53q51 51 51 125v1075q0 76 -51 127q-53 53 -127 54h-121q-72 0 -125 -53.5t-53 -127.5v-1075zM150 240v954q0 47 34 86q39 35 86 35q49 0 84 -35 q35 -39 35 -86v-954q0 -47 -35 -86q-35 -35 -84 -35q-47 0 -86 35q-34 39 -34 86z" />
<glyph unicode="&#xf9;" horiz-adv-x="542" d="M92 1796l121 -240h119l-119 240h-121zM33 178q0 -72 53 -125t125 -53h121q74 0 127 53q51 51 51 125v1256h-119v-1194q0 -47 -35 -86q-35 -35 -84 -35q-47 0 -86 35q-35 39 -34 86v1194h-119v-1256z" />
<glyph unicode="&#xfa;" horiz-adv-x="542" d="M211 1556h121l119 240h-119zM33 178q0 -72 53 -125t125 -53h121q74 0 127 53q51 51 51 125v1256h-119v-1194q0 -47 -35 -86q-35 -35 -84 -35q-47 0 -86 35q-35 39 -34 86v1194h-119v-1256z" />
<glyph unicode="&#xfb;" horiz-adv-x="542" d="M32 1557h119l121 299l119 -299h118l-237 539zM33 178q0 -72 53 -125t125 -53h121q74 0 127 53q51 51 51 125v1256h-119v-1194q0 -47 -35 -86q-35 -35 -84 -35q-47 0 -86 35q-35 39 -34 86v1194h-119v-1256z" />
<glyph unicode="&#xfd;" horiz-adv-x="501" d="M190 1556h121l119 240h-119zM12 1434l178 -717v-717h121v717l178 717h-124l-113 -461l-115 461h-125z" />
<glyph unicode="&#x152;" horiz-adv-x="1058" d="M574 0h477v119h-358v538h358v119h-358v539h358v119h-477v-1434zM31 178q0 -72 53 -125t125 -53h121q74 0 127 53q51 51 51 125v1075q0 76 -51 127q-53 53 -127 54h-121q-72 0 -125 -53.5t-53 -127.5v-1075zM150 240v954q0 47 34 86q39 35 86 35q49 0 84 -35 q35 -39 35 -86v-954q0 -47 -35 -86q-35 -35 -84 -35q-47 0 -86 35q-34 39 -34 86z" />
<glyph unicode="&#x153;" horiz-adv-x="1058" d="M574 0h477v119h-358v538h358v119h-358v539h358v119h-477v-1434zM31 178q0 -72 53 -125t125 -53h121q74 0 127 53q51 51 51 125v1075q0 76 -51 127q-53 53 -127 54h-121q-72 0 -125 -53.5t-53 -127.5v-1075zM150 240v954q0 47 34 86q39 35 86 35q49 0 84 -35 q35 -39 35 -86v-954q0 -47 -35 -86q-35 -35 -84 -35q-47 0 -86 35q-34 39 -34 86z" />
<glyph unicode="&#x2c6;" horiz-adv-x="501" d="M12 895h119l121 299l119 -299h118l-237 539z" />
<glyph unicode="&#x2dc;" horiz-adv-x="479" d="M-268 123l178 180l180 -180l178 180v119l-178 -181l-180 181l-178 -181v-118z" />
<glyph unicode="&#x2000;" horiz-adv-x="1046" />
<glyph unicode="&#x2001;" horiz-adv-x="2095" />
<glyph unicode="&#x2002;" horiz-adv-x="1046" />
<glyph unicode="&#x2003;" horiz-adv-x="2095" />
<glyph unicode="&#x2004;" horiz-adv-x="698" />
<glyph unicode="&#x2005;" horiz-adv-x="522" />
<glyph unicode="&#x2006;" horiz-adv-x="348" />
<glyph unicode="&#x2007;" horiz-adv-x="348" />
<glyph unicode="&#x2008;" horiz-adv-x="260" />
<glyph unicode="&#x2009;" horiz-adv-x="417" />
<glyph unicode="&#x200a;" horiz-adv-x="114" />
<glyph unicode="&#x2010;" horiz-adv-x="544" d="M33 178h477v121h-477v-121z" />
<glyph unicode="&#x2011;" horiz-adv-x="544" d="M33 178h477v121h-477v-121z" />
<glyph unicode="&#x2012;" horiz-adv-x="544" d="M33 178h477v121h-477v-121z" />
<glyph unicode="&#x2013;" horiz-adv-x="1024" d="M33 178v121h956v-121h-956z" />
<glyph unicode="&#x2014;" horiz-adv-x="2048" d="M33 178v121h1980v-121h-1980z" />
<glyph unicode="&#x2018;" horiz-adv-x="188" d="M33 1075h119v359h-119v-359z" />
<glyph unicode="&#x2019;" horiz-adv-x="188" d="M33 1075h119v359h-119v-359z" />
<glyph unicode="&#x201a;" horiz-adv-x="176" d="M31 0h59l60 59v119h-119v-119h59z" />
<glyph unicode="&#x201c;" horiz-adv-x="425" d="M33 1075h119v359h-119v-359zM272 1075h119v359h-119v-359z" />
<glyph unicode="&#x201d;" horiz-adv-x="425" d="M33 1075h119v359h-119v-359zM272 1075h119v359h-119v-359z" />
<glyph unicode="&#x201e;" horiz-adv-x="425" d="M33 0h119v358h-119v-358zM272 0h119v358h-119v-358z" />
<glyph unicode="&#x2022;" horiz-adv-x="237" d="M29 686q0 -27 18 -41q14 -18 41 -18h59q25 0 43 18q16 14 17 41v62q0 27 -17 40q-18 18 -43 19h-59q-27 0 -41 -19q-18 -16 -18 -40v-62z" />
<glyph unicode="&#x2026;" horiz-adv-x="544" d="M33 0h119v119h-119v-119zM211 0h121v119h-121v-119zM391 0h119v119h-119v-119z" />
<glyph unicode="&#x202f;" horiz-adv-x="417" />
<glyph unicode="&#x2039;" horiz-adv-x="499" d="M0 717l477 -418v147l-299 271l299 270v148z" />
<glyph unicode="&#x203a;" horiz-adv-x="509" d="M33 299l477 418l-477 418v-148l299 -270l-299 -271v-147z" />
<glyph unicode="&#x205f;" horiz-adv-x="522" />
<glyph unicode="&#x20ac;" horiz-adv-x="643" d="M14 537h119v-359q0 -72 53.5 -125t126.5 -53h119q74 0 127 53t53 125v180h-120v-118q0 -51 -35 -86t-84 -35t-84 34.5t-35 86.5v297h238v120h-238v119h297v119h-297v299q0 51 35 86t84 35t84 -35t35 -86v-119h120v178q0 74 -53 127.5t-127 53.5h-119q-74 0 -127 -53.5 t-53 -127.5v-358h-59v-119h59v-119h-119v-120z" />
<glyph unicode="&#x2122;" horiz-adv-x="569" d="M20 1374h84v-616h56v616h84v56h-224v-56zM258 758h55v448l58 -448h55l55 448v-448h56v672h-91l-49 -476l-51 476h-88v-672z" />
<glyph unicode="&#xe000;" horiz-adv-x="1435" d="M0 1435h1435v-1435h-1435v1435z" />
<glyph unicode="&#xfb01;" horiz-adv-x="698" d="M543 0h119v1434h-119v-1434zM33 0h119v657h358v119h-358v539h358v119h-477v-1434z" />
<glyph unicode="&#xfb02;" horiz-adv-x="1019" d="M543 0h477v119h-358v1315h-119v-1434zM33 0h119v657h358v119h-358v539h358v119h-477v-1434z" />
<glyph unicode="&#xfb03;" horiz-adv-x="1208" d="M1053 0h119v1434h-119v-1434zM543 0h119v657h358v119h-358v539h358v119h-477v-1434zM33 0h119v657h358v119h-358v539h358v119h-477v-1434z" />
<glyph unicode="&#xfb04;" horiz-adv-x="1529" d="M1053 0h477v119h-358v1315h-119v-1434zM543 0h119v657h358v119h-358v539h358v119h-477v-1434zM33 0h119v657h358v119h-358v539h358v119h-477v-1434z" />
</font>
</defs>
</svg>
